<svg width="42" height="43" viewBox="0 0 42 43" fill="none" xmlns="http://www.w3.org/2000/svg">
<rect width="42" height="43" fill="#1E1E1E"/>
<g id="Documents" clip-path="url(#clip0_0_1)">
<rect width="430" height="932" transform="translate(-45 -273)" fill="#16161A"/>
<g id="Frame 20">
<g id="Frame 11">
<rect x="-21" y="-20" width="382" height="83" rx="15" fill="#1C1E27"/>
<g id="ph:file">
<path id="Vector" d="M35.0536 14.0089L25.8661 4.82141C25.7441 4.69956 25.5993 4.60294 25.44 4.53707C25.2807 4.4712 25.1099 4.43736 24.9375 4.4375H9.1875C8.49131 4.4375 7.82363 4.71406 7.33134 5.20634C6.83906 5.69863 6.5625 6.36631 6.5625 7.0625V35.9375C6.5625 36.6337 6.83906 37.3014 7.33134 37.7937C7.82363 38.2859 8.49131 38.5625 9.1875 38.5625H32.8125C33.5087 38.5625 34.1764 38.2859 34.6687 37.7937C35.1609 37.3014 35.4375 36.6337 35.4375 35.9375V14.9375C35.4376 14.7651 35.4038 14.5943 35.3379 14.435C35.2721 14.2757 35.1754 14.1309 35.0536 14.0089ZM26.25 8.91805L30.957 13.625H26.25V8.91805ZM32.8125 35.9375H9.1875V7.0625H23.625V14.9375C23.625 15.2856 23.7633 15.6194 24.0094 15.8656C24.2556 16.1117 24.5894 16.25 24.9375 16.25H32.8125V35.9375Z" fill="white"/>
</g>
</g>
</g>
</g>
<defs>
<clipPath id="clip0_0_1">
<rect width="430" height="932" fill="white" transform="translate(-45 -273)"/>
</clipPath>
</defs>
</svg>
