<svg width="36" height="30" viewBox="0 0 36 30" fill="none" xmlns="http://www.w3.org/2000/svg">
<g clip-path="url(#clip0_67_646)">
<path d="M7.71903 0.0720781C9.71723 -0.187089 11.7935 0.257772 13.5036 1.32388C14.4689 1.89291 15.2411 2.71652 16.0329 3.49624C16.6072 4.05847 17.1756 4.62749 17.7514 5.18833L17.7726 5.24666C17.3425 5.67013 16.8544 6.51694 16.3083 7.78722C15.1631 8.19 14.3815 8.5968 13.9636 9.00722C13.0308 8.1093 12.1283 7.17958 11.1993 6.27708C10.3158 5.44972 8.9807 5.11624 7.82362 5.49597C6.50598 5.86638 5.50042 7.12652 5.4307 8.4943C5.38528 9.20583 5.57098 9.92861 5.95584 10.5287C6.19528 10.9153 6.54542 11.21 6.85903 11.5328C7.61306 12.2906 8.38514 13.0308 9.12778 13.7992C8.73111 14.1889 8.26167 14.9432 7.71903 16.0622C6.565 16.6092 5.76445 17.1067 5.31709 17.5544C4.31459 16.6118 3.35598 15.6183 2.36264 14.6653C1.17986 13.4347 0.388893 11.8382 0.115976 10.1537C-0.184024 8.34652 0.100837 6.44388 0.937504 4.8125C1.64 3.44472 2.70306 2.25666 3.99653 1.42222C5.12084 0.715272 6.39445 0.219856 7.71903 0.0720781Z" fill="#EA4335"/>
<path d="M17.7893 22.3302L26.4571 13.7876L28.8006 15.1795L30.267 17.5626L17.7893 29.9068L9.13379 21.3437L10.7948 19.0063L12.9671 17.5595L17.7893 22.3302Z" fill="#34A853"/>
<path d="M13.9712 9.01562L16.1513 10.1949L17.7894 12.8013L9.13381 21.344L5.31714 17.5545L13.9712 9.01562Z" fill="#FBBC05"/>
<path d="M28.2407 0.124079C30.7807 0.554634 33.1168 2.14047 34.3974 4.38408C35.856 6.84894 35.9356 10.0474 34.6413 12.598C34.1049 13.6935 33.2857 14.618 32.4135 15.4584C31.6899 16.1501 31.0027 16.8882 30.267 17.5626C28.9939 16.3078 27.7195 15.0537 26.4571 13.7876C27.3565 12.8791 28.2703 11.9856 29.1728 11.0802C29.7547 10.4921 30.1192 9.68588 30.1488 8.8563C30.1889 7.91436 29.8168 6.95894 29.1342 6.30574C28.4385 5.64727 27.464 5.27297 26.5047 5.35241C25.6797 5.39186 24.8832 5.7663 24.3013 6.34963C22.1296 8.49852 19.9633 10.6535 17.7893 12.801C16.5111 11.5446 15.2313 10.2899 13.9713 9.01533C13.9689 9.01236 13.9664 9.00958 13.9636 9.00699C15.2365 7.75672 16.5011 6.49811 17.7727 5.24644C18.694 4.33866 19.6125 3.427 20.5346 2.51866C21.7288 1.31908 23.3033 0.533245 24.9485 0.17269C26.0327 -0.031199 27.1513 -0.0539768 28.2407 0.124079Z" fill="#4285F4"/>
</g>
<defs>
<clipPath id="clip0_67_646">
<rect width="35.5556" height="30" fill="white"/>
</clipPath>
</defs>
</svg>
